HIERARCHY
ROOT Hips
{
  OFFSET -4.35178 90.3298 111.633
  CHANNELS 6 Xposition Yposition Zposition Zrotation Xrotation Yrotation
  JOINT LeftUpLeg
  {
    OFFSET 0.103456 1.85784 10.5485
    CHANNELS 6 Xposition Yposition Zposition Zrotation Xrotation Yrotation
    JOINT LeftLeg
    {
      OFFSET 43.5 -4.2e-05 0
      CHANNELS 6 Xposition Yposition Zposition Zrotation Xrotation Yrotation
      JOINT LeftFoot
      {
        OFFSET 42.3722 1.9e-05 0
        CHANNELS 6 Xposition Yposition Zposition Zrotation Xrotation Yrotation
        JOINT LeftToe
        {
          OFFSET 17.3 0 0
          CHANNELS 6 Xposition Yposition Zposition Zrotation Xrotation Yrotation
          End Site
          {
            OFFSET 0 0 0
          }
        }
      }
    }
  }
  JOINT RightUpLeg
  {
    OFFSET 0.103456 1.85782 -10.5485
    CHANNELS 6 Xposition Yposition Zposition Zrotation Xrotation Yrotation
    JOINT RightLeg
    {
      OFFSET 43.5 -2.7e-05 0
      CHANNELS 6 Xposition Yposition Zposition Zrotation Xrotation Yrotation
      JOINT RightFoot
      {
        OFFSET 42.3723 0 0
        CHANNELS 6 Xposition Yposition Zposition Zrotation Xrotation Yrotation
        JOINT RightToe
        {
          OFFSET 17.3 0 1.7e-05
          CHANNELS 6 Xposition Yposition Zposition Zrotation Xrotation Yrotation
          End Site
          {
            OFFSET 0 0 0
          }
        }
      }
    }
  }
  JOINT Spine
  {
    OFFSET 6.90197 -2.60373 0
    CHANNELS 6 Xposition Yposition Zposition Zrotation Xrotation Yrotation
    JOINT Spine1
    {
      OFFSET 12.5881 0 0
      CHANNELS 6 Xposition Yposition Zposition Zrotation Xrotation Yrotation
      JOINT Spine2
      {
        OFFSET 12.3432 -1.8e-05 0
        CHANNELS 6 Xposition Yposition Zposition Zrotation Xrotation Yrotation
        JOINT Neck
        {
          OFFSET 25.8329 2.3e-05 0
          CHANNELS 6 Xposition Yposition Zposition Zrotation Xrotation Yrotation
          JOINT Head
          {
            OFFSET 11.7666 0 0
            CHANNELS 6 Xposition Yposition Zposition Zrotation Xrotation Yrotation
            End Site
            {
              OFFSET 0 0 0
            }
          }
        }
        JOINT LeftShoulder
        {
          OFFSET 19.7459 -1.48035 6.0001
          CHANNELS 6 Xposition Yposition Zposition Zrotation Xrotation Yrotation
          JOINT LeftArm
          {
            OFFSET 11.2841 1.8e-05 -2e-05
            CHANNELS 6 Xposition Yposition Zposition Zrotation Xrotation Yrotation
            JOINT LeftForeArm
            {
              OFFSET 33 -1.3e-05 1.9e-05
              CHANNELS 6 Xposition Yposition Zposition Zrotation Xrotation Yrotation
              JOINT LeftHand
              {
                OFFSET 25.2 3.2e-05 1.1e-05
                CHANNELS 6 Xposition Yposition Zposition Zrotation Xrotation Yrotation
                End Site
                {
                  OFFSET 0 0 0
                }
              }
            }
          }
        }
        JOINT RightShoulder
        {
          OFFSET 19.7461 -1.48036 -6.00008
          CHANNELS 6 Xposition Yposition Zposition Zrotation Xrotation Yrotation
          JOINT RightArm
          {
            OFFSET 11.2841 0 0
            CHANNELS 6 Xposition Yposition Zposition Zrotation Xrotation Yrotation
            JOINT RightForeArm
            {
              OFFSET 33.0001 1.6e-05 0
              CHANNELS 6 Xposition Yposition Zposition Zrotation Xrotation Yrotation
              JOINT RightHand
              {
                OFFSET 25.1998 0.000123 0.000432
                CHANNELS 6 Xposition Yposition Zposition Zrotation Xrotation Yrotation
                End Site
                {
                  OFFSET 0 0 0
                }
              }
            }
          }
        }
      }
    }
  }
}
MOTION
Frames:	5
Frame Time:	0.0333333
-18.2999 91.6917 -1.96372 37.1075 83.4332 55.5707 0.103456 1.85784 10.5485 4.97555 14.1352 -178.717 43.5 -4.2e-05 1e-05 -16.5616 -8.38192 -2.74394 42.3722 1.9e-05 2.22045e-16 76.0005 1.31144 -1.28302 17.3 -6.66134e-16 3e-06 21.4546 -1e-06 0.003093 0.103456 1.85782 -10.5485 10.8444 -2.00001 176.066 43.5 -2.7e-05 4e-06 -4.31009 11.2549 2.43271 42.3723 8.88178e-16 1e-05 81.4155 8.2209 -10.0793 17.3 -6e-06 1.7e-05 21.4546 -1.9e-05 -0.003116 6.90197 -2.60373 -3e-06 6.93609 0.29533 0.268678 12.5881 1e-05 8e-06 3.848 0.677221 0.529971 12.3432 -1.8e-05 -5e-06 3.5175 0.764103 0.495438 25.8329 2.3e-05 7e-06 5.06551 0.671937 -5.18287 11.7666 -8e-06 -6e-06 -16.2058 -4.3428 10.4089 19.7459 -1.48035 6.0001 174.446 -8.73399 -103.131 11.2841 1.8e-05 -2e-05 1.63175 -25.4539 25.9406 33 -1.3e-05 1.9e-05 -14.5108 6.88364 -17.568 25.2 3.2e-05 1.1e-05 2.16287 30.0373 2.44268 19.7461 -1.48036 -6.00008 -179.014 0.18761 82.5261 11.2841 0 -1e-06 12.5588 -1.06768 4.25054 33.0001 1.6e-05 -1e-06 -25.9617 11.095 18.6234 25.1998 0.000123 0.000432 20.9184 -11.5869 6.2334 
-18.2981 91.6957 -1.96541 36.6728 83.4626 56.0286 0.103456 1.85784 10.5485 4.99321 14.1591 -178.743 43.5 -4.2e-05 1e-05 -16.5492 -8.36271 -2.7438 42.3722 1.9e-05 -6.66134e-16 75.9878 1.35049 -1.301 17.3 -4.44089e-16 3e-06 21.4546 -1e-06 0.003093 0.103456 1.85782 -10.5485 10.7831 -1.99589 176.041 43.5 -2.7e-05 4e-06 -4.51269 11.2735 2.42614 42.3723 1.77636e-15 1e-05 81.5175 8.29038 -10.0931 17.3 -6e-06 1.7e-05 21.4546 -1.9e-05 -0.003116 6.90197 -2.60373 -3e-06 6.94719 0.289498 0.268678 12.5881 1e-05 8e-06 3.87029 0.665378 0.52997 12.3432 -1.8e-05 -5e-06 3.53999 0.752206 0.495436 25.8329 2.3e-05 7e-06 5.06232 0.638237 -5.17099 11.7666 -8e-06 -6e-06 -16.1389 -4.36927 10.414 19.7459 -1.48035 6.0001 174.439 -8.75082 -103.113 11.2841 1.8e-05 -2e-05 1.5992 -25.4095 25.8492 33 -1.3e-05 1.9e-05 -14.5452 6.87344 -17.5602 25.2 3.2e-05 1.1e-05 2.16288 30.0373 2.44267 19.7461 -1.48036 -6.00008 -179.044 0.202083 82.5415 11.2841 3.55271e-15 -1e-06 12.5655 -1.07173 4.32963 33.0001 1.6e-05 -1e-06 -26.0145 11.0858 18.6264 25.1998 0.000123 0.000432 20.8634 -11.586 6.23171 
-18.3015 91.695 -1.96416 36.2802 83.479 56.4237 0.103456 1.85784 10.5485 5.01284 14.1453 -178.751 43.5 -4.2e-05 1e-05 -16.5318 -8.34878 -2.7437 42.3722 1.9e-05 6.66134e-16 75.9912 1.36359 -1.31571 17.3 -8.88178e-16 3e-06 21.4546 -1e-06 0.003093 0.103456 1.85782 -10.5485 10.6437 -2.01171 176.031 43.5 -2.7e-05 4e-06 -4.83169 11.2854 2.40815 42.3723 1.77636e-15 1e-05 81.6274 8.29913 -10.1045 17.3 -6e-06 1.7e-05 21.4546 -1.9e-05 -0.003116 6.90197 -2.60373 -3e-06 6.95928 0.285707 0.268678 12.5881 1e-05 8e-06 3.89464 0.658114 0.529969 12.3432 -1.8e-05 -5e-06 3.56445 0.74532 0.495436 25.8329 2.3e-05 7e-06 5.05844 0.5986 -5.14383 11.7666 -8e-06 -6e-06 -16.0523 -4.41837 10.3979 19.7459 -1.48035 6.0001 174.418 -8.79039 -103.106 11.2841 1.8e-05 -2e-05 1.53636 -25.3999 25.8015 33 -1.3e-05 1.9e-05 -14.555 6.89151 -17.5521 25.2 3.2e-05 1.1e-05 2.1825 30.0707 2.40992 19.7461 -1.48036 -6.00008 -179.03 0.209841 82.5179 11.2841 0 -1e-06 12.6084 -1.16413 4.45039 33.0001 1.6e-05 -1e-06 -26.0676 11.135 18.6007 25.1998 0.000123 0.000432 20.9033 -11.5739 6.26125 
-18.3037 91.6884 -1.95392 35.7381 83.5178 56.9678 0.103456 1.85784 10.5485 4.99552 14.1019 -178.736 43.5 -4.2e-05 1e-05 -16.5662 -8.33211 -2.74359 42.3722 1.9e-05 1.55431e-15 75.9913 1.38091 -1.31334 17.3 8.88178e-16 3e-06 21.4546 -1e-06 0.003093 0.103456 1.85782 -10.5485 10.6406 -2.01627 176.055 43.5 -2.7e-05 4e-06 -4.87693 11.299 2.39401 42.3723 0 1e-05 81.6277 8.29853 -10.155 17.3 -6e-06 1.7e-05 21.4546 -1.9e-05 -0.003116 6.90197 -2.60373 -3e-06 6.96615 0.279299 0.268678 12.5881 1e-05 8e-06 3.90847 0.64578 0.529968 12.3432 -1.8e-05 -5e-06 3.57845 0.733511 0.495434 25.8329 2.3e-05 7e-06 5.05903 0.554525 -5.11694 11.7666 -8e-06 -6e-06 -15.9381 -4.46807 10.3813 19.7459 -1.48035 6.0001 174.408 -8.81103 -103.09 11.2841 1.8e-05 -2e-05 1.46268 -25.3838 25.7538 33 -1.3e-05 1.9e-05 -14.5591 6.90528 -17.5381 25.2 3.2e-05 1.1e-05 2.1683 30.0845 2.40219 19.7461 -1.48036 -6.00008 -179.063 0.214559 82.5461 11.2841 3.55271e-15 -1e-06 12.6131 -1.10028 4.42369 33.0001 1.6e-05 -1e-06 -26.0247 11.1522 18.6112 25.1998 0.000123 0.000432 20.9234 -11.5686 6.2713 
-18.305 91.6785 -1.92578 35.228 83.558 57.4746 0.103456 1.85784 10.5485 4.97424 14.0757 -178.724 43.5 -4.2e-05 1e-05 -16.6174 -8.32205 -2.74352 42.3722 1.9e-05 0 76.0226 1.40134 -1.31749 17.3 4.44089e-16 3e-06 21.4546 -1e-06 0.003093 0.103456 1.85782 -10.5485 10.7248 -2.01504 176.079 43.5 -2.7e-05 4e-06 -4.73734 11.3272 2.40457 42.3723 0 1e-05 81.6138 8.33834 -10.1657 17.3 -6e-06 1.7e-05 21.4546 -1.9e-05 -0.003116 6.90197 -2.60373 -3e-06 6.96724 0.274431 0.268678 12.5881 1e-05 8e-06 3.91069 0.636255 0.529967 12.3432 -1.8e-05 -5e-06 3.58075 0.724218 0.499163 25.8329 2.3e-05 7e-06 5.06494 0.515519 -5.09957 11.7666 -8e-06 -6e-06 -15.8014 -4.50826 10.3658 19.7459 -1.48035 6.0001 174.396 -8.82642 -103.081 11.2841 1.8e-05 -2e-05 1.44436 -25.3888 25.7323 33 -1.3e-05 1.9e-05 -14.5953 6.8977 -17.5222 25.2 3.2e-05 1.1e-05 2.15297 30.0676 2.42572 19.7461 -1.48036 -6.00008 -179.075 0.221092 82.5547 11.2841 0 -1e-06 12.6021 -1.07663 4.39063 33.0001 1.6e-05 -1e-06 -26.0155 11.1316 18.5989 25.1998 0.000123 0.000432 20.8791 -11.5757 6.2431 
